<svg width="100" height="100" viewBox="0 0 100 100" fill="none" xmlns="http://www.w3.org/2000/svg">
<g clip-path="url(#clip0_8_29)">

<style>
*{fill: rgb(113, 152, 74)}
</style>

<path d="M67.1875 65.625H64.0625V68.75H67.1875V65.625Z" fill="black"/>
<path d="M89.0625 90.625H10.9375V93.75H89.0625V90.625Z" fill="black"/>
<path d="M64.0625 87.5H85.9375V51.5625H64.0625V62.5H70.3125V71.875H64.0625V87.5ZM76.5625 75H82.8125V78.125H76.5625V75ZM76.5625 81.25H82.8125V84.375H76.5625V81.25ZM67.1875 75H73.4375V78.125H67.1875V75ZM67.1875 81.25H73.4375V84.375H67.1875V81.25Z" fill="black"/>
<path d="M42.1875 65.625H39.0625V68.75H42.1875V65.625Z" fill="black"/>
<path d="M17.1874 26.5625H14.0624V29.6875H17.1874V26.5625Z" fill="black"/>
<path d="M42.1875 26.5625H39.0625V29.6875H42.1875V26.5625Z" fill="black"/>
<path d="M39.0625 87.5H60.9375V51.5625H39.0625V62.5H45.3125V71.875H39.0625V87.5ZM51.5625 75H57.8125V78.125H51.5625V75ZM51.5625 81.25H57.8125V84.375H51.5625V81.25ZM42.1875 75H48.4375V78.125H42.1875V75ZM42.1875 81.25H48.4375V84.375H42.1875V81.25Z" fill="black"/>
<path d="M39.0625 48.4375H60.9375V12.5H39.0625V23.4375H45.3125V32.8125H39.0625V48.4375ZM51.5625 35.9375H57.8125V39.0625H51.5625V35.9375ZM51.5625 42.1875H57.8125V45.3125H51.5625V42.1875ZM42.1875 35.9375H48.4375V39.0625H42.1875V35.9375ZM42.1875 42.1875H48.4375V45.3125H42.1875V42.1875Z" fill="black"/>
<path d="M14.0624 48.4375H35.9374V12.5H14.0624V23.4375H20.3124V32.8125H14.0624V48.4375ZM26.5624 35.9375H32.8124V39.0625H26.5624V35.9375ZM26.5624 42.1875H32.8124V45.3125H26.5624V42.1875ZM17.1874 35.9375H23.4374V39.0625H17.1874V35.9375ZM17.1874 42.1875H23.4374V45.3125H17.1874V42.1875Z" fill="black"/>
<path d="M89.0625 6.25H10.9375V9.375H89.0625V6.25Z" fill="black"/>
<path d="M64.0625 48.4375H85.9375V12.5H64.0625V23.4375H70.3125V32.8125H64.0625V48.4375ZM76.5625 35.9375H82.8125V39.0625H76.5625V35.9375ZM76.5625 42.1875H82.8125V45.3125H76.5625V42.1875ZM67.1875 35.9375H73.4375V39.0625H67.1875V35.9375ZM67.1875 42.1875H73.4375V45.3125H67.1875V42.1875Z" fill="black"/>
<path d="M67.1875 26.5625H64.0625V29.6875H67.1875V26.5625Z" fill="black"/>
<path d="M14.0624 87.5H35.9374V51.5625H14.0624V62.5H20.3124V71.875H14.0624V87.5ZM26.5624 75H32.8124V78.125H26.5624V75ZM26.5624 81.25H32.8124V84.375H26.5624V81.25ZM17.1874 75H23.4374V78.125H17.1874V75ZM17.1874 81.25H23.4374V84.375H17.1874V81.25Z" fill="black"/>
<path d="M17.1874 65.625H14.0624V68.75H17.1874V65.625Z" fill="black"/>
</g>
<defs>
<clipPath id="clip0_8_29">
<rect width="100" height="100" fill="white"/>
</clipPath>
</defs>
</svg>
