<svg width="100" height="100" viewBox="0 0 100 100" fill="none" xmlns="http://www.w3.org/2000/svg">
<g clip-path="url(#clip0_2_7)">

<style>
*{fill: rgb(113, 152, 74)}
</style>

<path d="M90 49.6C88.9 49.2 88 48.4 87.5 47.3L82.8 37.6C81.7 35.3 79.3 33.8 76.7 33.8H66.3V31.8C66.3 29.7 64.6 28.1 62.6 28.1H29.7C28.8 28.1 28.1 28.8 28.1 29.7C28.1 30.6 28.8 31.3 29.7 31.3H62.5C62.8 31.3 63.1 31.6 63.1 31.9V63.5H36.3C35.6 60.5 32.9 58.2 29.6 58.2C26.3 58.2 23.6 60.5 22.9 63.5H19.5C19.2 63.5 18.9 63.2 18.9 62.9V59C18.9 58.1 18.2 57.4 17.3 57.4C16.4 57.4 15.7 58.1 15.7 59V62.9C15.7 65 17.4 66.6 19.4 66.6H23C23.7 69.6 26.4 71.9 29.7 71.9C33 71.9 35.7 69.6 36.4 66.6H64.8H71.5C72.2 69.6 74.9 71.9 78.2 71.9C81.5 71.9 84.2 69.6 84.9 66.6H90.8C93.2 66.6 95.2 64.6 95.2 62.2V56.7C95 53.5 93 50.7 90 49.6ZM29.7 68.8C27.6 68.8 26 67.1 26 65.1C26 63.1 27.7 61.4 29.7 61.4C31.8 61.4 33.4 63.1 33.4 65.1C33.4 67.1 31.8 68.8 29.7 68.8ZM78.1 68.8C76 68.8 74.4 67.1 74.4 65.1C74.4 63 76.1 61.4 78.1 61.4C80.2 61.4 81.8 63.1 81.8 65.1C81.8 67.1 80.1 68.8 78.1 68.8ZM91.9 62.2C91.9 62.9 91.3 63.5 90.6 63.5H84.7C84 60.5 81.3 58.2 78 58.2C74.8 58.2 72 60.5 71.3 63.5H66.1V49.5H80.5C81.4 49.5 82.1 48.8 82.1 47.9C82.1 47 81.4 46.3 80.5 46.3H66.3V36.8H76.7C78.1 36.8 79.4 37.6 80 38.8L84.7 48.5C85.6 50.3 87.1 51.6 89 52.3C90.8 52.9 92 54.6 92 56.5V62.2H91.9Z" fill="black"/>
<path d="M23.3 38.4H37C37.9 38.4 38.6 37.7 38.6 36.8C38.6 35.9 37.9 35.2 37 35.2H23.3C22.4 35.2 21.7 35.9 21.7 36.8C21.7 37.7 22.5 38.4 23.3 38.4Z" fill="black"/>
<path d="M14.9 38.4H18.3C19.2 38.4 19.9 37.7 19.9 36.8C19.9 35.9 19.2 35.2 18.3 35.2H14.9C14 35.2 13.3 35.9 13.3 36.8C13.3 37.7 14.1 38.4 14.9 38.4Z" fill="black"/>
<path d="M23.3 45.5H45.8C46.7 45.5 47.4 44.8 47.4 43.9C47.4 43 46.7 42.3 45.8 42.3H23.3C22.4 42.3 21.7 43 21.7 43.9C21.8 44.8 22.5 45.5 23.3 45.5Z" fill="black"/>
<path d="M14.9 45.5H18.3C19.2 45.5 19.9 44.8 19.9 43.9C19.9 43 19.2 42.3 18.3 42.3H14.9C14 42.3 13.3 43 13.3 43.9C13.4 44.8 14.1 45.5 14.9 45.5Z" fill="black"/>
<path d="M31.6 50.9C31.6 50 30.9 49.3 30 49.3H14.9C14 49.3 13.3 50 13.3 50.9C13.3 51.8 14 52.5 14.9 52.5H30C30.9 52.5 31.6 51.8 31.6 50.9Z" fill="black"/>
<path d="M9.9 49.4H6.6C5.7 49.4 5 50.1 5 51C5 51.9 5.7 52.6 6.6 52.6H10C10.9 52.6 11.6 51.9 11.6 51C11.5 50.1 10.8 49.4 9.9 49.4Z" fill="black"/>
</g>
<defs>
<clipPath id="clip0_2_7">
<rect width="100" height="100" fill="white"/>
</clipPath>
</defs>
</svg>
