<svg width="100" height="100" viewBox="0 0 100 100" fill="none" xmlns="http://www.w3.org/2000/svg">
<g clip-path="url(#clip0_2_2)">
<path d="M7 25V28V39V42H10C14.4537 42 18 45.5463 18 50C18 54.4539 14.4538 58 10 58H7V61V72V75H10H90H93V72V61V58H90C85.5462 58 82 54.4539 82 50C82 45.5463 85.5463 42 90 42H93V39V28V25H90H10H7ZM13 31H62V36H68V31H87V36.3437C80.7344 37.7303 76 43.3348 76 50C76 56.6652 80.7344 62.2385 87 63.625V69H68V64H62V69H13V63.625C19.2656 62.2385 24 56.6652 24 50C24 43.3348 19.2656 37.7303 13 36.3437V31ZM52.6562 34.9687C51.8828 35.0638 51.1768 35.4561 50.6875 36.0625L30.6875 60.0625C30.4336 60.366 30.2421 60.7166 30.124 61.0943C30.0058 61.4719 29.9634 61.8692 29.9991 62.2632C30.0348 62.6573 30.148 63.0405 30.3321 63.3907C30.5161 63.741 30.7675 64.0515 31.0719 64.3044C31.3762 64.5574 31.7274 64.7477 32.1055 64.8646C32.4835 64.9815 32.8809 65.0226 33.2748 64.9856C33.6688 64.9486 34.0516 64.8342 34.4013 64.649C34.7509 64.4638 35.0606 64.2113 35.3125 63.9062L55.3125 39.9062C55.7101 39.4463 55.9586 38.8766 56.0251 38.2723C56.0916 37.6681 55.973 37.0579 55.685 36.5225C55.397 35.9872 54.9532 35.552 54.4123 35.2745C53.8714 34.997 53.259 34.8904 52.6562 34.9687ZM35 34.9997C31.1695 34.9997 28 38.1692 28 41.9997C28 45.8302 31.1695 48.9997 35 48.9997C38.8305 48.9997 42 45.8302 42 41.9997C42 38.1692 38.8305 34.9997 35 34.9997ZM62 39.9997V47.9997H68V39.9997H62ZM35 40.9997C35.5877 40.9997 36 41.412 36 41.9997C36 42.5874 35.5877 42.9997 35 42.9997C34.4123 42.9997 34 42.5874 34 41.9997C34 41.412 34.4123 40.9997 35 40.9997ZM51 50.9997C47.1695 50.9997 44 54.1692 44 57.9997C44 61.8302 47.1695 64.9997 51 64.9997C54.8305 64.9997 58 61.8302 58 57.9997C58 54.1692 54.8305 50.9997 51 50.9997ZM62 51.9997V59.9997H68V51.9997H62ZM51 56.9997C51.5877 56.9997 52 57.412 52 57.9997C52 58.5874 51.5877 58.9997 51 58.9997C50.4123 58.9997 50 58.5874 50 57.9997C50 57.412 50.4123 56.9997 51 56.9997Z" fill="black"/>
</g>

<style>
*{fill: rgb(113, 152, 74)}
</style>

<defs>
<clipPath id="clip0_2_2">
<rect width="100" height="100" fill="white"/>
</clipPath>
</defs>
</svg>
