<svg id="Layer_1" data-name="Layer 1" xmlns="http://www.w3.org/2000/svg" viewBox="0 0 148 148"><defs><style>.cls-1{fill:#fff;}</style></defs><path class="cls-1" d="M16.21,122.07A1.68,1.68,0,0,0,18.1,124c1.23,0,1.8-.46,1.8-1.47v-.32a.39.39,0,0,1,.41-.42h1.27a.42.42,0,0,1,.45.44v.28c0,2.06-1.44,3.13-4,3.13S14,124.21,14,121.85v-2.12c0-2.36,1.5-3.78,4.12-3.78s4,1.07,4,3.13v.22a.43.43,0,0,1-.45.45H20.31a.4.4,0,0,1-.41-.43v-.25c0-1-.57-1.48-1.8-1.48a1.68,1.68,0,0,0-1.89,1.92Z"/><path class="cls-1" d="M31,124.14a3.25,3.25,0,0,1-2.88,1.49c-2.33,0-3.53-1.1-3.53-2.76v-.15c0-1.77,1-2.77,3.73-2.77a9.51,9.51,0,0,1,2,.22v-1.38c0-.83-.53-1.22-1.66-1.22s-1.6.39-1.6,1v.1c0,.24-.11.38-.39.38H25.33a.37.37,0,0,1-.41-.4v-.09c0-1.65,1.27-2.64,3.67-2.64,2.55,0,3.86,1.2,3.86,3v3.82l1,1a.75.75,0,0,1,0,1.14l-.33.33a.76.76,0,0,1-1.15,0Zm-1.09-11.42c.25-.35.42-.46.7-.46a.71.71,0,0,1,.74.77,1.49,1.49,0,0,1-.52,1.07,2.79,2.79,0,0,1-2.14.81,2.78,2.78,0,0,1-2.14-.81A1.49,1.49,0,0,1,26,113a.73.73,0,0,1,.78-.77c.27,0,.44.11.7.46a1.31,1.31,0,0,0,1.2.64A1.33,1.33,0,0,0,29.87,112.72Zm-1.42,11.33a1.63,1.63,0,0,0,1.8-1.55v-.94a6.21,6.21,0,0,0-1.75-.24c-1.31,0-1.79.49-1.79,1.29v.15C26.71,123.57,27.23,124.05,28.45,124.05Z"/><path class="cls-1" d="M40.75,125.43H36.5A.45.45,0,0,1,36,125v-.7a.45.45,0,0,1,.48-.46h1v-4.89l-1.14-1.15a.75.75,0,0,1,0-1.14l.33-.33a.76.76,0,0,1,1.15,0l1.34,1.35A2.62,2.62,0,0,1,41.59,116h.19c.79,0,1.18.35,1.18,1v.15a.91.91,0,0,1-1,.91h-.3a1.9,1.9,0,0,0-2,2.1v3.73h1.07a.46.46,0,0,1,.49.46v.7A.46.46,0,0,1,40.75,125.43Z"/><path class="cls-1" d="M49.49,125.43c-2.25,0-3-.77-3-2.67v-5h-1.2a.46.46,0,0,1-.5-.48v-.66a.46.46,0,0,1,.5-.48h1.2v-1.81a.75.75,0,0,1,.81-.81H48a.75.75,0,0,1,.8.81v1.81h1.91a.46.46,0,0,1,.5.48v.66a.46.46,0,0,1-.5.48H48.76v5c0,.75.23,1,.92,1h1a.46.46,0,0,1,.5.5v.61a.49.49,0,0,1-.53.55Z"/><path class="cls-1" d="M61.1,124.05a2.89,2.89,0,0,1-2.81,1.58A3.37,3.37,0,0,1,54.64,122v-4.21h-1a.46.46,0,0,1-.5-.46v-.7a.46.46,0,0,1,.5-.46h2.42c.52,0,.78.22.78.77V122c0,1.26.59,1.94,1.75,1.94s1.77-.67,1.77-1.94v-4.21h-1a.47.47,0,0,1-.5-.46v-.7a.47.47,0,0,1,.5-.46h2.4c.52,0,.79.22.79.77v5.74l1.15,1.15a.75.75,0,0,1,0,1.14l-.34.33a.75.75,0,0,1-1.14,0Z"/><path class="cls-1" d="M70.87,125.43H66.62a.45.45,0,0,1-.48-.46v-.7a.45.45,0,0,1,.48-.46h1v-4.89l-1.14-1.15a.75.75,0,0,1,0-1.14l.33-.33a.76.76,0,0,1,1.15,0l1.35,1.35A2.6,2.6,0,0,1,71.72,116h.18c.79,0,1.18.35,1.18,1v.15c0,.57-.4.91-1,.91h-.3a1.9,1.9,0,0,0-2,2.1v3.73h1.07a.47.47,0,0,1,.5.46v.7A.47.47,0,0,1,70.87,125.43Z"/><path class="cls-1" d="M79.29,125.63c-2.7,0-4.27-1.23-4.27-3.54V119.6c0-2.36,1.53-3.65,4.1-3.65s4.06,1.23,4.06,3.52v1.29c0,.54-.26.78-.76.78h-5.2v.75c0,1.31.74,1.76,2.08,1.76s1.68-.39,1.68-1v-.08c0-.2.08-.27.3-.27h1.48a.27.27,0,0,1,.29.29V123C83.05,124.66,81.78,125.63,79.29,125.63ZM77.22,120h3.86v-.72c0-1.22-.65-1.77-1.94-1.77s-1.92.57-1.92,1.77Z"/><path class="cls-1" d="M93.44,122.68c0,1.81-1.15,2.95-3.86,2.95s-3.86-1-3.86-2.58v-.11a.34.34,0,0,1,.37-.35h1.33a.28.28,0,0,1,.31.31V123c0,.69.47,1,1.85,1s1.83-.41,1.83-1.09v-.24c0-.61-.32-.77-.83-.83l-2.38-.3c-1.81-.22-2.48-1-2.48-2.52v-.15c0-1.81,1.09-3,3.82-3s3.71,1,3.71,2.56v.08a.34.34,0,0,1-.35.36H91.57a.29.29,0,0,1-.33-.31v-.09c0-.67-.44-1-1.7-1s-1.79.41-1.79,1.07v.21c0,.6.34.75.87.83L91,120c1.79.22,2.44,1,2.44,2.53Zm-4.84,4.43c.09-.22.22-.29.54-.29h1.12c.24,0,.35.09.35.25v.08a1,1,0,0,1-.18.46l-.76,1.24a.73.73,0,0,1-.68.27h-.72c-.24,0-.35-.09-.35-.27v-.06a1,1,0,0,1,.11-.39Z"/><path class="cls-1" d="M100.18,125.43c-2.25,0-3-.77-3-2.67v-5H96a.46.46,0,0,1-.5-.48v-.66a.46.46,0,0,1,.5-.48h1.2v-1.81a.75.75,0,0,1,.81-.81h.61a.75.75,0,0,1,.79.81v1.81h1.92a.46.46,0,0,1,.5.48v.66a.46.46,0,0,1-.5.48H99.44v5c0,.75.24,1,.92,1h1a.46.46,0,0,1,.5.5v.61a.5.5,0,0,1-.54.55Z"/><path class="cls-1" d="M104.4,125.43a.44.44,0,0,1-.47-.46v-.7a.44.44,0,0,1,.47-.46h1v-6h-1a.44.44,0,0,1-.47-.46v-.7a.44.44,0,0,1,.47-.46h2.42c.52,0,.8.22.8.77v6.89h1a.46.46,0,0,1,.5.46v.7a.46.46,0,0,1-.5.46ZM105.94,115a.85.85,0,0,1-.93-.93v-.7a.84.84,0,0,1,.93-.92h.75a.84.84,0,0,1,.93.92v.7a.85.85,0,0,1-.93.93Z"/><path class="cls-1" d="M111.56,123.6a.86.86,0,0,1,1-.95h.87a.86.86,0,0,1,1,.95v1a.87.87,0,0,1-1,1h-.87a.86.86,0,0,1-1-1Z"/><path class="cls-1" d="M121.52,125.43h-4.24a.45.45,0,0,1-.48-.46v-.7a.45.45,0,0,1,.48-.46h1v-4.89l-1.14-1.15a.74.74,0,0,1,0-1.14l.33-.33a.76.76,0,0,1,1.15,0l1.34,1.35a2.62,2.62,0,0,1,2.49-1.73h.19c.79,0,1.18.35,1.18,1v.15c0,.57-.41.91-1,.91h-.29a1.9,1.9,0,0,0-2,2.1v3.73h1.07a.46.46,0,0,1,.5.46v.7A.46.46,0,0,1,121.52,125.43Z"/><path class="cls-1" d="M129.91,116c2.72,0,4.29,1.42,4.29,3.78v2.12c0,2.36-1.57,3.78-4.29,3.78s-4.26-1.42-4.26-3.78v-2.12C125.65,117.37,127.22,116,129.91,116Zm0,8c1.35,0,2-.63,2-1.92v-2.56c0-1.29-.68-1.92-2-1.92s-2,.63-2,1.92v2.56C127.9,123.36,128.59,124,129.91,124Z"/><path class="cls-1" d="M64,70.61l9.76-6.93c.86-.6,2.24-.12,2.24.89l0,2.74L69,72.47c-.72.59-.3,1.12.31,1.28A22.34,22.34,0,0,0,75,74a5.3,5.3,0,0,0,2.52-1l10.26-7.84c.85-.63,2.51-.29,2.51.9l-.08,19.16a2.88,2.88,0,0,1-1,2.41l-9.9,7.67a8.14,8.14,0,0,1-4.09,1.51c-3,.4-8.24.47-10.61-.23-1.24-.36-1.87-.87-1.87-2v-21A3.12,3.12,0,0,1,64,70.61Z"/><path class="cls-1" d="M117.48,72.31l0,11.19c-1.48-1.36-4.28-1.87-6.66-1.87-5,0-9.25,2.87-9.25,7.16s4.29,7.39,11.42,7.39c7,0,11-4.6,11-8.56V73.09h9.37a1.44,1.44,0,0,0,1.44-1.45v-6a1.44,1.44,0,0,0-1.44-1.45h-7.75A8.08,8.08,0,0,0,117.48,72.31Z"/><path class="cls-1" d="M14,89.56h31a1.4,1.4,0,0,1,1.4,1.4v3.12a1.4,1.4,0,0,1-1.4,1.4H14a1.4,1.4,0,0,1-1.4-1.4V91A1.4,1.4,0,0,1,14,89.56ZM47.15,65.64a7.3,7.3,0,0,0-6,4.12V66.12a1.47,1.47,0,0,0-1.46-1.46H19.37a1.47,1.47,0,0,0-1.46,1.46V78.85c0,3.47,3.55,7.21,11.63,7.21,8.78,0,11.64-3.63,11.64-7.21V72.63h8.6a1.35,1.35,0,0,0,1.35-1.35V67a1.34,1.34,0,0,0-1.35-1.34Z"/><path class="cls-1" d="M15.43,39.33v-7c0-7.55,5-12,13.82-12,8.5,0,13.34,3.25,13.34,9.86v.88a1.3,1.3,0,0,1-1.41,1.42H37a1.29,1.29,0,0,1-1.3-1.36v-.59c0-3.07-1.71-4.6-6.49-4.6s-6.73,2-6.73,6v7.73c0,4,2.06,6,6.73,6s6.49-1.54,6.49-4.61v-.77A1.29,1.29,0,0,1,37,39h4.14a1.3,1.3,0,0,1,1.41,1.41v1.07c0,6.61-4.84,9.86-13.34,9.86C20.39,51.32,15.43,46.89,15.43,39.33Z"/><path class="cls-1" d="M102.41,42.28V49.8a2,2,0,0,0,2,2h7.51A12.74,12.74,0,0,0,102.41,42.28Z"/><path class="cls-1" d="M121.86,20.13,104.11,37.88c5.25.51,11.57,6.31,12.18,12.18L134,32.31c2.21-2.21,1.85-5.62-2.2-9.66C128,18.8,124.21,17.78,121.86,20.13Z"/><path class="cls-1" d="M74.06,53.16a3.76,3.76,0,0,0,3.12-1.53L89.77,34c2.11-3.1,3.8-6.88-1.3-11.46-4.13-3.72-8.71-1.87-10.64,1.12-.89,1.38-3.77,5.1-3.77,5.1s-2.89-3.72-3.78-5.1c-1.93-3-6.14-4.68-10.55-1.29-5,3.83-3.5,8.53-1.39,11.63l12.59,17.6A3.76,3.76,0,0,0,74.06,53.16Z"/></svg>