<svg width="100" height="100" viewBox="0 0 100 100" fill="none" xmlns="http://www.w3.org/2000/svg">
<g clip-path="url(#clip0_5_21)">

<style>
*{fill: rgb(113, 152, 74)}
</style>

<path d="M53.6259 48.1876C63.6125 48.1876 71.7502 40.0498 71.7502 30.0633C71.7502 20.0768 63.6125 11.939 53.6259 11.939C43.6394 11.939 35.5016 20.0768 35.5016 30.0633C35.5016 40.0498 43.6394 48.1876 53.6259 48.1876ZM53.6259 31.8757C50.0011 31.8757 47.0287 28.9214 47.0287 25.2784C47.0287 22.2879 49.0586 19.7505 51.8135 18.9531C51.8135 18.9349 51.8135 18.9349 51.8135 18.9168V17.3218C51.8135 16.325 52.6291 15.5094 53.6259 15.5094C54.6228 15.5094 55.4384 16.325 55.4384 17.3218V18.9168C55.4384 18.9349 55.4384 18.9349 55.4384 18.9531C58.1933 19.7505 60.2232 22.2879 60.2232 25.2784C60.2232 26.2934 59.4076 27.0909 58.4108 27.0909C57.3958 27.0909 56.5984 26.2934 56.5984 25.2784C56.5984 23.6472 55.2572 22.3242 53.6259 22.3242C51.9947 22.3242 50.6535 23.6472 50.6535 25.2784C50.6535 26.9277 51.9947 28.2508 53.6259 28.2508C57.2508 28.2508 60.2232 31.2051 60.2232 34.8481C60.2232 37.8385 58.1933 40.376 55.4384 41.1735C55.4384 41.1916 55.4384 41.1916 55.4384 41.2096V42.8046C55.4384 43.8014 54.6228 44.617 53.6259 44.617C52.6291 44.617 51.8135 43.8014 51.8135 42.8046V41.2096C51.8135 41.1916 51.8135 41.1916 51.8135 41.1735C49.0586 40.376 47.0287 37.8385 47.0287 34.8481C47.0287 33.833 47.8443 33.0357 48.8411 33.0357C49.8561 33.0357 50.6535 33.833 50.6535 34.8481C50.6535 36.4792 51.9947 37.8023 53.6259 37.8023C55.2572 37.8023 56.5984 36.4792 56.5984 34.8481C56.5984 33.1987 55.2572 31.8757 53.6259 31.8757Z" fill="black"/>
<path d="M19.2079 51.8124H8.33331V88.061H19.2079V51.8124Z" fill="black"/>
<path d="M91.4332 73.4347C90.9619 72.4922 90.0014 72.0029 89.0408 72.1117L64.7543 75.3559L64.7361 75.2653C64.3918 75.3196 64.0293 75.374 63.6668 75.374H42.7695V71.7492H63.6668C65.1348 71.7492 66.3311 70.5529 66.3311 69.0848C66.3311 67.508 65.1348 66.3119 63.6668 66.3119H48.3155C44.2557 66.3119 40.4314 64.7351 37.5678 61.8533C35.6828 59.9684 33.2724 58.7902 30.7349 58.4822L22.8328 57.4854V79.3794L45.1619 84.6355C49.5117 85.6505 54.1153 85.6142 58.4651 84.5449L89.947 76.6608C90.6176 76.4977 91.1614 76.0446 91.4513 75.4102C91.7414 74.7759 91.7414 74.0509 91.4332 73.4347Z" fill="black"/>
</g>
<defs>
<clipPath id="clip0_5_21">
<rect width="100" height="100" fill="white"/>
</clipPath>
</defs>
</svg>
