<svg width="46" height="90" viewBox="0 0 46 90" fill="none" xmlns="http://www.w3.org/2000/svg">
<g clip-path="url(#clip0_1_25)">
<path d="M45.9954 44.656C45.9157 43.5409 45.4645 42.4847 44.7141 41.656L8.7141 1.65604C8.27502 1.1676 7.74402 0.770425 7.15143 0.487213C6.55884 0.204001 5.91628 0.0403244 5.26042 0.00546231C4.60456 -0.0293998 3.94825 0.0652917 3.32898 0.284088C2.70971 0.502884 2.1396 0.841469 1.65122 1.28061C1.16283 1.71975 0.765721 2.2508 0.482577 2.84341C0.199433 3.43603 0.0357949 4.07866 0.00100791 4.73453C-0.033779 5.39039 0.0609666 6.04668 0.279834 6.66592C0.498701 7.28517 0.837403 7.8552 1.2766 8.34354L34.2766 44.9998L1.2766 81.656C0.837403 82.1444 0.498701 82.7144 0.279834 83.3336C0.0609666 83.9529 -0.033779 84.6092 0.00100791 85.265C0.0357949 85.9209 0.199433 86.5635 0.482577 87.1562C0.765721 87.7488 1.16283 88.2799 1.65122 88.719C2.1396 89.1582 2.70971 89.4968 3.32898 89.7156C3.94825 89.9344 4.60456 90.029 5.26042 89.9942C5.91628 89.9593 6.55884 89.7956 7.15143 89.5124C7.74402 89.2291 8.27502 88.832 8.7141 88.3435L44.7141 48.3435C45.164 47.8462 45.5093 47.2635 45.7294 46.63C45.9496 45.9965 46.04 45.3252 45.9954 44.656Z" fill="black"/>
</g>
<defs>
<clipPath id="clip0_1_25">
<rect width="46" height="90" fill="white"/>
</clipPath>
</defs>
</svg>
