<svg width="46" height="90" viewBox="0 0 46 90" fill="none" xmlns="http://www.w3.org/2000/svg">
<g clip-path="url(#clip0_1_9)">
<path d="M0.00460815 45.344C0.0843472 46.4591 0.535467 47.5153 1.28591 48.344L37.2859 88.344C37.725 88.8324 38.256 89.2296 38.8486 89.5128C39.4412 89.796 40.0837 89.9597 40.7396 89.9945C41.3954 90.0294 42.0517 89.9347 42.671 89.7159C43.2903 89.4971 43.8604 89.1585 44.3488 88.7194C44.8372 88.2803 45.2343 87.7492 45.5174 87.1566C45.8006 86.564 45.9642 85.9213 45.999 85.2655C46.0338 84.6096 45.939 83.9533 45.7202 83.3341C45.5013 82.7148 45.1626 82.1448 44.7234 81.6565L11.7234 45.0002L44.7234 8.34396C45.1626 7.85562 45.5013 7.2856 45.7202 6.66635C45.939 6.04711 46.0338 5.39082 45.999 4.73495C45.9642 4.07909 45.8006 3.43646 45.5174 2.84384C45.2343 2.25122 44.8372 1.72012 44.3488 1.28098C43.8604 0.841836 43.2903 0.503189 42.671 0.284393C42.0517 0.0655972 41.3954 -0.0290333 40.7396 0.00582886C40.0837 0.040691 39.4412 0.204428 38.8486 0.48764C38.256 0.770852 37.725 1.16802 37.2859 1.65646L1.28591 41.6565C0.835977 42.1538 0.490674 42.7365 0.270554 43.37C0.0504334 44.0035 -0.0400091 44.6748 0.00460815 45.344Z" fill="black"/>
</g>
<defs>
<clipPath id="clip0_1_9">
<rect width="46" height="90" fill="white" transform="matrix(-1 0 0 -1 46 90)"/>
</clipPath>
</defs>
</svg>
