<svg width="100" height="100" viewBox="0 0 100 100" fill="none" xmlns="http://www.w3.org/2000/svg">
<g clip-path="url(#clip0_2_17)">
<style>
*{fill: rgb(113, 152, 74)}
</style>
<path d="M86.8 19.1H83.8C83.7 17.8 83.5 16.5 83.2 15.3L83.1 14.9C82.3 11.9 80.4 9.39998 77.8 8.29998C75.7 7.29998 73.3 7.29998 71.2 8.39998L62 12.7C60.8 10.6 58.7 9.19998 56.3 8.99998C53.8 8.79998 51.6 9.79998 50 11.5C48.6 9.89998 46.5 8.99998 44.3 8.99998C44.1 8.99998 43.9 8.99998 43.8 8.99998C41.3 9.19998 39.3 10.6 38.1 12.7L28.8 8.29998C26.7 7.29998 24.4 7.29998 22.2 8.19998C19.7 9.39998 17.8 11.8 16.9 14.8L16.8 15.2C16.5 16.4 16.3 17.7 16.2 19H13.2C8.7 19 5 22.7 5 27.2V39C5 39.9 5.7 40.6 6.6 40.6H9.2V84.8C9.2 89 12.6 92.4 16.8 92.4H83.4C87.6 92.4 91 89 91 84.8V40.7H93.6C94.5 40.7 95.2 40 95.2 39.1V27.3C95 22.8 91.3 19.1 86.8 19.1ZM72.6 11.1C73.9 10.5 75.2 10.5 76.5 11.1C78.2 11.9 79.5 13.5 80.1 15.7L80.2 16.1C80.6 17.5 80.8 19 80.8 20.6C80.8 22.1 80.6 23.6 80.2 25.1C79.6 27.2 78.3 28.9 76.6 29.6C75.3 30.2 74 30.2 72.7 29.6L59.8 23.5C60.4 22.7 60.9 21.9 61.4 21.1H66.3C67.2 21.1 67.9 20.4 67.9 19.5C67.9 18.6 67.2 18 66.3 18H62.8C63 17.2 63 16.5 62.9 15.7L72.6 11.1ZM71.4 46.4L65 43.8C64.6 43.6 64.1 43.7 63.6 43.9C63.2 44.1 62.9 44.6 62.8 45L62.2 49.3L58.5 41.3L53.1 29.6C54.7 28.5 56.2 27.2 57.5 25.8L62 28L71.4 46.4ZM87.8 69.7H58.7V62.5H87.8V69.7ZM55.6 89.4H44.4V42.4L49.4 31.5C49.6 31.6 49.8 31.6 50 31.6C50.2 31.6 50.4 31.5 50.6 31.5L55.6 42.4V89.4ZM12.2 62.5H41.3V69.7H12.2V62.5ZM38 28L42.4 25.9C43.7 27.3 45.2 28.5 46.8 29.7L41.4 41.4L37.7 49.4L37.1 45C37 44.5 36.8 44.1 36.3 43.9C35.9 43.7 35.4 43.6 34.9 43.8L28.5 46.4L38 28ZM44.3 12.2C46.2 12.2 47.8 13.3 48.6 15C49.1 16.1 51 16.1 51.5 15C52.2 13.3 53.9 12.2 55.8 12.2H56.1C57.8 12.3 59.3 13.5 59.8 15.3C60.1 16.4 60 17.7 59.4 18.7C58.6 20.2 57.5 21.7 56.2 23.1C54.6 24.9 52.6 26.5 50.5 28C50.3 28.1 50.2 28.2 50 28.3C49.8 28.2 49.7 28.1 49.5 28C47.3 26.6 45.4 24.9 43.8 23.1C42.9 22.1 42 21 41.3 19.9C41 19.5 40.8 19.1 40.6 18.7C40 17.7 39.9 16.5 40.2 15.3C40.8 13.5 42.2 12.3 44.3 12.2ZM19.8 16.1L19.9 15.7C20.5 13.5 21.8 11.9 23.5 11.1C24.8 10.5 26.2 10.5 27.4 11.1L37 15.7C36.9 16.5 37 17.3 37.1 18H33.6C32.7 18 32 18.7 32 19.6C32 20.5 32.7 21.2 33.6 21.2H38.4C38.5 21.3 38.5 21.4 38.6 21.5C39 22.2 39.5 22.9 40.1 23.5L27.3 29.6C26 30.2 24.7 30.2 23.4 29.6C21.7 28.8 20.4 27.2 19.8 25.1C19.4 23.7 19.2 22.1 19.2 20.5C19.2 19 19.4 17.5 19.8 16.1ZM8.1 27.3C8.1 24.5 10.4 22.2 13.2 22.2H16.2C16.3 23.5 16.5 24.8 16.8 26C17.7 29 19.6 31.4 22.1 32.5C23.1 33 24.2 33.2 25.3 33.2C26.4 33.2 27.6 32.9 28.6 32.4L33.3 30.2L29.5 37.6H10.7H8.1V27.3ZM28 40.7L23.9 48.7C23.6 49.3 23.7 50 24.1 50.5C24.5 51 25.2 51.1 25.8 50.9L34.2 47.5L35.3 55.1C35.4 55.8 35.9 56.3 36.6 56.4C36.7 56.4 36.8 56.4 36.8 56.4C37.4 56.4 38 56.1 38.2 55.5L41.1 49.1V59.5H12.2V40.7H28ZM12.2 84.9V72.8H41.3V89.3H16.7C14.2 89.4 12.2 87.4 12.2 84.9ZM83.3 89.4H58.7V72.8H87.8V84.9C87.8 87.4 85.8 89.4 83.3 89.4ZM87.8 59.4H58.7V49.1L61.6 55.5C61.9 56.1 62.4 56.4 63 56.4C63.1 56.4 63.1 56.4 63.2 56.4C63.9 56.3 64.4 55.8 64.5 55.1L65.6 47.5L74 50.9C74.6 51.1 75.3 51 75.7 50.5C76.1 50 76.2 49.3 75.9 48.7L71.8 40.7H87.6V59.4H87.8ZM91.9 37.6H89.3H70.4L66.6 30.2L71.3 32.4C72.4 32.9 73.5 33.2 74.6 33.2C75.7 33.2 76.8 33 77.8 32.5C80.3 31.4 82.2 29 83.1 26C83.4 24.8 83.6 23.5 83.7 22.2H86.7C89.5 22.2 91.8 24.5 91.8 27.3V37.6H91.9Z" fill="black"/>
</g>
<defs>
<clipPath id="clip0_2_17">
<rect width="100" height="100" fill="white"/>
</clipPath>
</defs>
</svg>
